<svg width="20" height="25" viewBox="0 0 20 25" fill="none" xmlns="http://www.w3.org/2000/svg">
<g clip-path="url(#clip0_71_511)">
<path d="M16.0369 13.4839C16.0369 13.5849 15.8853 16.5663 19.1699 18.1328C18.5635 20.0025 16.4412 24.1461 13.9651 24.1461C12.5502 24.1461 11.7417 23.2365 10.1247 23.2365C8.45715 23.2365 7.54758 24.1461 6.28428 24.1461C3.85875 24.2472 1.53428 19.6993 0.877369 17.8296C0.37205 16.4147 0.169922 15.0504 0.169922 13.7365C0.169922 9.23919 3.1513 7.06632 5.98109 7.01579C7.34545 7.01579 9.06354 7.97589 9.82152 7.97589C10.5289 7.97589 12.4997 6.81366 14.3188 6.96525C16.1885 7.11685 17.6034 7.8243 18.5635 9.18866C16.896 10.2498 16.0369 11.6142 16.0369 13.4839ZM13.2071 5.19664C12.1965 6.35887 10.9837 7.01579 9.66992 6.91472C9.56886 5.55036 10.0742 4.28706 10.9837 3.27642C11.7922 2.36685 13.2071 1.60888 14.4199 1.50781C14.4199 2.06366 14.5715 3.57962 13.2071 5.19664Z" fill="white"/>
</g>
<defs>
<clipPath id="clip0_71_511">
<rect width="19" height="24" fill="white" transform="translate(0.169922 0.969727)"/>
</clipPath>
</defs>
</svg>
